Patient4_TMGait_0pt7_02_left_20_EMG.mot
version=1
nRows=30
nColumns=33
inDegrees=no
endheader
time	1LAddLong	2LGlutMax	3LGlutMed	4LIliopsoas	5LSemiMemb	6LBicFemLong	7LRecFem	8LVastMed	9LVastLat	10LGasMed	11LTibAnt	12lTibPost	13LPeroneusLong	14LSol	15LExtDigLong	16LFlexDigLong	17RAddLong	18RGlutMax	19RGlutMed	20RIliopsoas	21RSemiMemb	22RBicFemLong	23RRecFem	24RVastMed	25RVastLat	26RGasMed	27RTibAnt	28RTibPost	29RPeroneusLong	30RSol	31RExtDigLong	32RFlexDigLong
23.475	0.000305	0.042725	-0.043945	0.036774	-0.004883	0.046082	-0.12482	0.001984	-0.029907	-0.20432	0.017548	-0.007324	-0.065613	0.15381	-0.037079	0.05661	-0.062714	-0.033875	0.010986	-0.16373	0.62103	0.39658	-0.056915	0.25223	0.008392	-0.003967	-0.068512	-0.008545	0.1828	-0.015717	0.004272	0.000458
23.476	0.005798	0.056305	-0.070038	0.027771	-0.013275	0.053864	-0.12177	0.000916	-0.002747	-0.23911	0.012207	-0.011444	-0.009766	0.25589	-0.002136	-0.08194	-0.011292	-0.09201	-0.34103	-0.11597	0.60989	0.44479	-0.1506	0.27115	-0.085907	-0.006866	0.007019	-0.014191	-0.21759	-0.015106	0.00412	0.003662
23.477	0.007935	0.13657	-0.12054	-0.002289	0.000916	-0.001526	-0.14725	0.002747	-0.006256	0.081024	0.011597	0.002289	-0.014801	0.070648	0.032501	-0.048981	0.021667	-0.1265	-0.069275	-0.00824	0.77881	0.44998	-0.26825	0.20462	-0.10422	-0.007935	0.046997	-0.006561	-0.43274	-0.026703	0.006561	0.001831
23.478	0.001221	0.10284	-0.094452	0.007324	0.006104	-0.050507	-0.15793	0.007629	0.004578	0.50644	0.022888	-0.012207	0.002899	-0.10925	0.018921	-0.037537	0.034332	-0.1767	0.62042	0.05661	0.61691	0.50049	-0.27237	0.15289	-0.094757	-0.000305	0.027924	-0.00885	-0.56259	-0.054169	0.002747	-0.005646
23.479	0.001373	0.095825	-0.045319	0.010681	0.017853	-0.096436	-0.17075	-0.001678	0.032959	0.23102	0.000458	-0.011902	0.10986	-0.16693	0.028992	0.013428	0.039825	-0.16403	0.8136	0.14221	0.52094	0.58945	-0.37735	0.13214	-0.00473	-0.000458	0.02655	-0.007782	0.24841	-0.046387	0.005035	-0.00946
23.48	-0.000916	0.076599	-0.046692	-0.010071	-0.028992	-0.030365	-0.21164	-0.001221	0.053558	-0.3981	-0.006104	-0.019073	-0.026703	-0.27725	0.01236	-0.011292	0.001678	-0.21255	0.89371	0.11963	0.42114	0.63385	-0.48691	0.1004	0.023804	0.001068	0.034332	0.001373	0.30228	-0.014954	0.004272	-0.008545
23.481	-0.006561	0.11307	-0.070343	-0.002594	-0.091248	0.013275	-0.20645	0	0.008545	-0.50003	0.013733	-0.022278	-0.064392	-0.080414	0.017395	-0.044403	-0.061646	-0.20996	0.35782	0.02533	0.19211	0.76385	-0.36713	0.069275	0.092163	0.003052	-0.057526	-0.005798	0.30395	-0.12436	0.004578	-0.007172
23.482	-0.006866	0.14847	-0.051727	0.010071	-0.11383	-0.02655	-0.20401	-0.00351	0.006866	-0.022583	0.013428	-0.011444	-0.087585	-0.023346	-0.005493	-0.070801	-0.051422	-0.19653	0.070038	-0.032349	0.25681	0.94009	-0.30289	0.050507	0.19379	0.002441	-0.059204	-0.00885	-0.36865	-0.16388	0.00351	-0.019531
23.483	-0.006714	0.19318	-0.037994	0.016937	0.026245	-0.081329	-0.22079	0	0.000763	-0.022278	0.014038	0.006409	-0.039063	-0.14923	0.010681	-0.033569	-0.012665	-0.065613	0.15717	0.005646	0.25314	1.115	-0.383	-0.034332	0.41748	0.001068	0.081635	-0.011444	-0.51102	-0.093842	0.000763	-0.014343
23.484	0.011902	0.21927	0.029602	0.027313	0.047913	-0.049286	-0.2063	-0.008392	0.018311	0.13336	0.005646	0.006409	0.064087	-0.37231	0.011292	0.005646	0.020294	-0.12619	0.30014	-0.022888	0.22339	1.1368	-0.27741	-0.34866	0.42023	0.003967	0.2327	-0.011444	0.01709	-0.04364	-0.004425	-0.014496
23.485	0.010223	0.23132	0.038757	-0.00473	0.049286	0.14618	-0.21469	-0.00473	0.013275	-0.18204	0.003967	0.002594	0.093231	-0.24567	0.023804	-0.001068	0.046844	-0.24017	0.31754	-0.020294	0.65811	1.0202	-0.21408	-0.44846	0.35919	-0.005035	0.25894	-0.013123	0.11246	0.014191	0.003052	-0.016174
23.486	0.00885	0.21774	0.033417	0.005188	0.029144	0.19379	-0.1857	-0.004425	-0.00885	-0.3154	0.011444	-0.000305	0.059662	-0.30853	-0.005646	0.00061	0.080261	-0.29022	0.084991	-0.043793	0.57526	0.93048	-0.14908	-0.38467	0.30518	-0.005493	0.30563	-0.012817	0.168	-0.013275	0.001373	-0.007324
23.487	0.00061	0.24994	0.072479	0.014801	0.032654	0.12039	-0.19302	-0.002899	-0.019226	-0.28625	0.012665	0.024567	0.001068	-0.5658	-0.033875	0.019989	0.06134	-0.38147	0.089722	-0.025024	0.32471	0.92087	-0.28244	-0.30792	0.16739	0.000153	0.27634	-0.009155	-0.095673	-0.11826	0.001221	-0.003357
23.488	0.01236	0.2388	0.11154	0.032654	0.049438	0.082703	-0.20248	-0.005798	-0.022736	-0.23727	0.000153	0.036774	-0.015259	-0.28229	-0.025177	-0.005035	-0.017242	-0.48401	0.050354	0.058136	0.3064	0.86517	-0.32135	-0.10086	0.037842	-0.002441	0.16083	-0.006256	-0.24872	-0.19257	0.005951	-0.004425
23.489	-0.001068	0.20309	0.080414	0.023651	0.027924	0.098877	-0.23972	0.002899	-0.020447	-0.22827	0.03891	0.030365	-0.009613	-0.11124	-0.025482	-0.009308	0.021515	-0.55893	-0.091705	0.12772	0.33539	0.85129	-0.49957	-0.072479	-0.14038	0.008087	-0.28473	-0.008392	1.2984	-0.18616	0.004272	-0.001984
23.49	-0.011902	0.15961	0.077209	0.00412	0.001984	0.097046	-0.20676	-0.003052	-0.025024	-0.009155	0.009766	0.059814	-0.028687	-0.26215	-0.023651	-0.00885	0.084381	-0.56122	-0.017242	0.052338	0.38254	0.72662	-0.52292	-0.1973	0.1152	0.007782	-0.64835	-0.005035	1.6122	-0.13214	0.001526	-0.003815
23.491	-0.002136	0.18448	0.099182	0.012512	-0.015411	0.048828	-0.2475	-0.001221	-0.016632	0.15884	0.037079	0.30838	-0.08255	-0.2475	-0.015869	-0.006714	0.070953	-0.6282	-0.13565	-0.00061	0.12848	0.59433	-0.50293	0.42831	0.77911	-0.001984	-0.72449	-0.010529	0.56854	-0.082245	-0.003815	-0.001068
23.492	-0.007629	0.13229	0.11307	-0.007019	-0.02182	0.036774	-0.23499	-0.00061	-0.008545	0.13702	0.030212	-0.33875	-0.10742	-0.046387	-0.003815	-0.074921	0.003662	-0.50064	-0.20157	-0.042114	0.068359	0.56335	-0.25009	0.60821	1.1157	0.006104	-0.50201	-0.008545	0.40405	-0.05661	-0.000305	0.003052
23.493	-0.002441	0.083923	0.14587	-0.010071	-0.015259	0.046234	-0.20783	0.00946	-0.006561	0.06485	0.027161	-0.006256	-0.079041	0.021973	0.014954	-0.066376	0.010986	-0.43304	-0.17349	-0.00061	0.30701	0.61249	-0.050354	0.55634	0.95352	0.006409	-0.36438	-0.010071	0.26504	-0.041046	-0.00061	-0.011597
23.494	0.017395	0.075073	0.15869	0.009766	0.009003	0.074158	-0.22232	-0.013123	0.013428	-0.007782	0.019379	0.20508	0.043488	0.24658	0.031281	-0.08194	-0.0354	-0.31387	-0.19241	0.008698	0.25513	0.69931	-0.020294	0.4834	0.48523	0.007935	-0.233	-0.015259	0.002747	0.019684	-0.008087	-0.002136
23.495	0.005951	0.12405	0.16037	-0.015411	0.040741	0.033264	-0.2478	0.000916	0.027618	-0.02243	0.027618	-0.084076	0.10468	0.26932	0.025787	0.012817	-0.047302	-0.24979	-0.18951	0.002899	0.15579	0.71579	-0.19791	0.32333	-0.012054	0.006409	-0.097351	-0.009308	-0.017548	0.10422	-0.003815	-0.003357
23.496	0.011139	0.088806	0.18143	-0.007782	0.000153	0.071564	-0.24155	-0.013428	0.036011	-0.026093	0.044861	-0.13001	-0.034943	0.32105	0.016479	0.11719	-0.023193	-0.215	0.009003	-0.13016	0.3949	0.64209	-0.19302	0.077972	-0.5278	0.007172	0.025787	-0.011139	-0.023956	0.089264	0.003052	-0.000916
23.497	0.014801	0.052032	0.19699	-0.007019	-0.022125	0.037842	-0.23132	-0.015106	0.026703	-0.037384	0.069122	-0.041199	-0.11963	0.51514	0.007935	-0.007172	0.010529	-0.22415	-0.045624	-0.18738	0.42389	0.42938	-0.2562	0.17868	-0.54352	0.003662	0.32608	-0.010834	-0.1413	0.013885	0.002136	-0.001678
23.498	0.008087	-0.050812	0.19287	-0.002136	-0.035706	-0.10284	-0.2214	-0.010529	0.003204	0.02243	0.016632	0.078278	-0.091705	0.37445	-0.000305	-0.024109	0.074158	-0.16998	0.12497	-0.046082	0.46661	0.25635	-0.24246	-0.063324	-0.13046	-0.003662	0.41885	-0.00946	-0.60715	-0.023193	0.004425	-0.007172
23.499	0.02121	-0.027313	0.20447	0.001373	-0.035248	-0.15503	-0.17685	-0.009155	-0.003052	0.047302	0.015106	0.11795	-0.044556	0.32974	0.010986	-0.00946	0.074921	-0.21149	0.233	0.062866	0.44098	0.21179	-0.14786	-0.4039	0.20065	0.004883	0.26779	-0.008545	-0.33615	0.000763	0.003204	-0.014954
23.5	0.022583	-0.062714	0.20004	0.014191	0.037384	-0.11231	-0.20294	-0.002441	-0.02655	0.003204	-0.014496	-0.10544	0.06485	0.23666	0.015106	0.005646	0.044403	-0.15045	0.75043	0.13641	0.27481	0.16998	-0.030823	-0.064392	-0.047913	0.002136	-0.073853	-0.009918	-0.009918	0.046997	0.001068	-0.018921
23.501	0.010071	-0.082245	0.21149	0.010986	0.042877	-0.075226	-0.15595	-0.001526	-0.040588	-0.046082	0.023956	-0.072784	0.050964	-0.088806	0.005493	0.012207	-0.018616	-0.11505	0.58594	0.075073	0.14587	0.13901	-0.10346	0.003052	-0.29114	-0.003357	-0.11643	-0.013123	-0.16037	0.032043	0.00061	-0.022888
23.502	0.01236	-0.085907	0.21881	0.012665	0.037994	-0.014801	-0.15884	-0.006561	-0.041199	-0.055237	0.006561	-0.023346	-0.004883	-0.44128	0.014954	0.018616	-0.084534	-0.056458	0.18677	0.10452	0.006866	0.19867	-0.12421	0.11093	-0.49835	-0.010376	-0.024872	-0.006866	0.42633	0.029297	0.003052	-0.018463
23.503	0.006866	-0.1059	0.21316	0.014343	0.026398	-0.014191	-0.13611	0.000153	-0.052795	-0.07782	0.006256	-0.020905	-0.074463	-0.56946	0.010681	-0.20721	-0.06958	0.056	0.062714	0.073242	0.063171	0.10605	-0.13199	-0.054321	-0.58136	-0.007477	0.085144	-0.008087	-0.11383	0.020294	0.001221	-0.012512
23.504	0.000763	-0.076752	0.21866	-0.002289	0.020294	0.020142	-0.12497	0.00061	-0.05188	-0.06897	0.017395	-0.008392	-0.066986	-0.31113	0.02655	-0.003052	-0.042877	0.11398	-0.14984	0.016937	0.10346	-0.014954	-0.22919	-0.34317	-0.57159	-0.00351	0.047455	-0.009155	-0.016937	0.046234	0.002594	-0.013428
